HIERARCHY
ROOT RootJoint
{
    OFFSET   0.000000   0.000000   0.000000
    CHANNELS 6 Xposition Yposition Zposition Xrotation Yrotation Zrotation
    JOINT pelvis_lowerback
    {
        OFFSET   0.000000   0.093605   0.000000
        CHANNELS 3 Xrotation Yrotation Zrotation
        JOINT lowerback_torso
        {
            OFFSET   0.000000   0.100000   0.000000
            CHANNELS 3 Xrotation Yrotation Zrotation
            JOINT torso_head
            {
                OFFSET   0.000000   0.282350   0.000000
                CHANNELS 3 Xrotation Yrotation Zrotation
                End Site
                {
                    OFFSET   0.000000   0.192650   0.000000
                }
            }
            JOINT rTorso_Clavicle
            {
                OFFSET  -0.001000   0.157500   0.000000
                CHANNELS 3 Xrotation Yrotation Zrotation
                JOINT rShoulder
                {
                    OFFSET  -0.117647   0.000000   0.000000
                    CHANNELS 3 Xrotation Yrotation Zrotation
                    JOINT rElbow
                    {
                        OFFSET  -0.245000   0.000000   0.000000
                        CHANNELS 3 Xrotation Yrotation Zrotation
                        JOINT rWrist
                        {
                            OFFSET  -0.240000   0.000000   0.000000
                            CHANNELS 3 Xrotation Yrotation Zrotation
                            End Site
                            {
                                OFFSET  -0.116353  -0.002500   0.000000
                            }
                        }
                    }
                }
            }
            JOINT lTorso_Clavicle
            {
                OFFSET   0.001000   0.157500   0.000000
                CHANNELS 3 Xrotation Yrotation Zrotation
                JOINT lShoulder
                {
                    OFFSET   0.117647   0.000000   0.000000
                    CHANNELS 3 Xrotation Yrotation Zrotation
                    JOINT lElbow
                    {
                        OFFSET   0.245000   0.000000   0.000000
                        CHANNELS 3 Xrotation Yrotation Zrotation
                        JOINT lWrist
                        {
                            OFFSET   0.240000   0.000000   0.000000
                            CHANNELS 3 Xrotation Yrotation Zrotation
                            End Site
                            {
                                OFFSET   0.116353  -0.002500   0.000000
                            }
                        }
                    }
                }
            }
        }
    }
    JOINT rHip
    {
        OFFSET  -0.100000  -0.051395   0.000000
        CHANNELS 3 Xrotation Yrotation Zrotation
        JOINT rKnee
        {
            OFFSET   0.000000  -0.410000   0.000000
            CHANNELS 3 Xrotation Yrotation Zrotation
            JOINT rAnkle
            {
                OFFSET   0.000000  -0.390000   0.000000
                CHANNELS 3 Xrotation Yrotation Zrotation
                JOINT rToeJoint
                {
                    OFFSET   0.000000  -0.050000   0.130000
                    CHANNELS 3 Xrotation Yrotation Zrotation
                    End Site
                    {
                        OFFSET  -0.010000   0.002000   0.060000
                    }
                }
            }
        }
    }
    JOINT lHip
    {
        OFFSET   0.100000  -0.051395   0.000000
        CHANNELS 3 Xrotation Yrotation Zrotation
        JOINT lKnee
        {
            OFFSET   0.000000  -0.410000   0.000000
            CHANNELS 3 Xrotation Yrotation Zrotation
            JOINT lAnkle
            {
                OFFSET   0.000000  -0.390000   0.000000
                CHANNELS 3 Xrotation Yrotation Zrotation
                JOINT lToeJoint
                {
                    OFFSET   0.000000  -0.050000   0.130000
                    CHANNELS 3 Xrotation Yrotation Zrotation
                    End Site
                    {
                        OFFSET   0.010000   0.002000   0.060000
                    }
                }
            }
        }
    }
}
MOTION
Frames: 11
Frame Time:   0.008333
 -2.376719   0.925631   3.975860   0.000000   0.000000   0.000000   0.000000   0.000000   0.000000   0.000000   0.000000   0.000000   0.000000   0.000000   0.000000   0.000000   0.000000   0.000000   0.000000   0.000000   0.000000   0.000000   0.000000   0.000000   0.000000   0.000000   0.000000   0.000000   0.000000   0.000000   0.000000   0.000000   0.000000   0.000000   0.000000   0.000000   0.000000   0.000000   0.000000   0.000000   0.000000   0.000000   0.000000   0.000000   0.000000   0.000000   0.000000   0.000000   0.000000   0.000000   0.000000   0.000000   0.000000   0.000000   0.000000   0.000000   0.000000   0.000000   0.000000   0.000000   0.000000   0.000000   0.000000
 -2.375580   0.923603   3.972419  -0.404414   0.104896   0.240009   1.536714  -0.023833  -0.007705  -0.781858  -0.159115  -0.046770   0.359205  -0.051687  -0.102801  -1.120388  -0.053764  -0.909262  -3.270689   0.367161  -0.503006  -0.038399   3.231788   0.115037   0.039848  -2.246252   0.933759  -1.379925   0.202528   1.137059  -3.221558  -0.320725  -0.148386  -0.038680  -3.377421  -0.126364  -0.005272   1.978628  -0.949758  -1.089998  -0.362046  -0.729515   3.526226   0.014635  -0.008703  -2.395113   0.197458   0.158518  -0.080868  -0.000234   0.000042  -1.045958   0.136785  -0.161845   3.466815  -0.002111   0.007275  -2.804790  -0.073909  -0.172279  -0.055495  -0.000043  -0.000078
 -2.374179   0.923002   3.967864  -1.219896   0.149181   0.341772   3.386741  -0.022004   0.166503  -1.237453  -0.304528  -0.000897   0.763046  -0.105516  -0.188317  -2.191097   0.326698  -2.029359  -6.519535   1.155019  -1.270297  -0.090164   6.440897   0.199335  -0.047185  -3.350845   1.500445  -2.695146  -0.019559   2.427735  -6.249763  -0.933808  -0.100303  -0.100115  -6.937220  -0.220541  -0.150787   2.849206  -1.686488  -2.357862  -0.924885  -1.023107   7.283236   0.014963  -0.026315  -4.371436   0.210058   0.600931  -0.069642  -0.000214  -0.000019  -2.131682   0.379707  -0.310841   6.980146   0.001240   0.014350  -5.416768  -0.058289  -0.464586  -0.069847  -0.000078  -0.000099
 -2.372324   0.921566   3.963172  -2.208563   0.165928   0.583009   5.234078  -0.018551   0.273487  -1.497719  -0.442658   0.041809   1.160261  -0.157166  -0.259423  -3.160707   0.999425  -3.392679  -9.718186   2.244227  -2.217610  -0.147911   9.524702   0.260638  -0.145795  -3.802540   1.807007  -3.892928  -0.548777   3.972710  -9.064561  -1.732835   0.129667  -0.177078 -10.579216  -0.289949  -0.305430   3.103216  -2.149930  -3.548380  -1.366743  -1.588715  11.205640   0.017147  -0.039734  -6.372554   0.305612   0.852142  -0.123013  -0.000177   0.000168  -3.104545   0.533311  -0.436589  10.734045  -0.000507   0.016887  -7.853804  -0.109215  -0.608405  -0.164563  -0.000102  -0.000161
 -2.370009   0.919140   3.958544  -3.244937   0.238725   0.896843   7.017455  -0.040532   0.393783  -1.674569  -0.597314   0.085710   1.525433  -0.207234  -0.323584  -4.033303   1.851592  -4.913159 -12.775066   3.526761  -3.255333  -0.201604  12.464007   0.302841  -0.249936  -3.835539   1.786643  -4.977831  -1.292040   5.651558 -11.684279  -2.664771   0.474701  -0.259018 -14.279500  -0.341396  -0.460385   2.961412  -2.275365  -4.680635  -1.705306  -2.482676  15.095997   0.025610  -0.048492  -8.292692   0.429157   1.010716  -0.174445  -0.000291   0.000253  -4.028044   0.676303  -0.480203  14.518370  -0.006019   0.021584 -10.126071  -0.150212  -0.744937  -0.247528  -0.000005  -0.000242
 -2.367359   0.915697   3.954125  -4.286077   0.394043   1.221615   8.720729  -0.083765   0.557380  -1.804884  -0.771373   0.155461   1.856704  -0.255133  -0.376150  -4.814450   2.805595  -6.529102 -15.605148   4.903299  -4.294170  -0.245455  15.251599   0.328438  -0.353998  -3.585021   1.485110  -5.954632  -2.176537   7.401864 -14.124323  -3.685672   0.882461  -0.339342 -18.021919  -0.379229  -0.611019   2.555315  -2.118704  -5.757607  -1.945350  -3.668831  18.892378   0.040259  -0.054560 -10.118081   0.560508   1.114631  -0.219185  -0.000487   0.000265  -4.924433   0.809198  -0.385002  18.296834  -0.013673   0.029821 -12.247054  -0.180721  -0.874306  -0.325215   0.000169  -0.000368
 -2.364524   0.911371   3.950042  -5.305074   0.600146   1.513417  10.329308  -0.126491   0.770009  -1.908350  -0.950490   0.268034   2.158919  -0.299807  -0.417404  -5.509163   3.804121  -8.166947 -18.224850   6.324988  -5.287259  -0.277545  17.884048   0.341772  -0.450357  -3.153497   0.994739  -6.830985  -3.136798   9.176313 -16.398426  -4.753658   1.318685  -0.413874 -21.792948  -0.406943  -0.750577   1.983703  -1.739323  -6.756387  -2.130886  -5.033705  22.453127   0.056099  -0.060868 -11.820217   0.676112   1.212937  -0.253891  -0.000648   0.000261  -5.795974   0.925988  -0.119245  22.057766  -0.022186   0.040388 -14.226880  -0.201585  -0.995592  -0.395433   0.000373  -0.000501
 -2.362230   0.906469   3.945525  -5.692247   0.891131   1.679550  11.344157  -0.225931   0.863324  -2.197270  -1.190218   0.603840   2.473402  -0.338009  -0.332214  -6.092075   4.647786  -9.706619 -20.448691   7.803846  -5.630173  -0.298141  20.825141   0.353566  -0.471197  -2.667467  -0.079010  -7.479509  -4.040570  10.625833 -18.759413  -5.884449   1.508717  -0.462168 -25.542854  -0.434041  -0.939657   1.279914  -0.539152  -8.603450  -2.199324  -6.420824  26.287280   0.074360  -0.067868 -13.274755   0.618194   1.315788  -0.177635   0.000130   0.000026  -7.472332   1.138316   0.607776  25.900740  -0.035410   0.061132 -15.926766  -0.051483  -1.230895  -0.073865  -0.001330   0.001738
 -2.360175   0.900964   3.941203  -6.096097   1.213013   1.812047  12.351237  -0.349723   0.942110  -2.453462  -1.448335   0.947718   2.744180  -0.374145  -0.240078  -6.586257   5.501505 -11.016619 -22.512470   9.225217  -5.784659  -0.303756  23.599639   0.354462  -0.489843  -1.997519  -0.954827  -8.046867  -4.977542  11.876370 -20.963628  -6.999288   1.557088  -0.484703 -29.069865  -0.446569  -1.121974   0.433720   0.614094 -10.412499  -2.189635  -7.922134  30.068760   0.091807  -0.077014 -14.630269   0.558950   1.409214  -0.097818   0.000882  -0.000192  -9.115263   1.286365   1.595114  29.686939  -0.049364   0.082876 -17.511272   0.103768  -1.443086   0.240501  -0.003253   0.003711
 -2.358270   0.894810   3.937197  -6.529623   1.523646   1.932655  13.338207  -0.476319   1.015722  -2.646927  -1.705267   1.272456   2.990957  -0.407466  -0.156417  -7.009637   6.338569 -12.160411 -24.435958  10.566603  -5.816296  -0.299766  26.197426   0.347120  -0.505022  -1.300036  -1.656012  -8.541590  -5.909312  12.978056 -23.020504  -8.070990   1.504444  -0.489284 -32.375619  -0.447724  -1.288722  -0.453614   1.619583 -12.110273  -2.103739  -9.526954  33.624067   0.105415  -0.087664 -15.893890   0.499850   1.494124  -0.024476   0.001494  -0.000395 -10.691665   1.362373   2.762629  33.443075  -0.062403   0.104005 -18.990293   0.257924  -1.634715   0.528991  -0.005013   0.005206
 -2.356468   0.887972   3.933550  -6.984570   1.791197   2.049615  14.298872  -0.594426   1.082840  -2.786654  -1.949464   1.572374   3.220724  -0.437905  -0.081217  -7.375654   7.142533 -13.180227 -26.233115  11.822348  -5.763853  -0.289865  28.625549   0.334058  -0.515136  -0.620258  -2.239045  -8.976133  -6.808510  13.961493 -24.941824  -9.082456   1.380513  -0.481715 -35.468345  -0.440814  -1.438774  -1.336516   2.496267 -13.705531  -1.943547 -11.207907  36.941572   0.114193  -0.099152 -17.073432   0.441427   1.571379   0.039990   0.001931  -0.000584 -12.194217   1.368204   4.058686  37.179765  -0.073723   0.123571 -20.370675   0.408832  -1.807674   0.793590  -0.006495   0.006259
